{"title":"In The Name Of Ben Hur 2016 Movies HDRip XviD New +Sample ☻rDX☻","uid":15529268,"size":739557686,"categoryP":"video","categoryS":"movies","magnet":"?xt=urn:btih:7638a886268b4a8e0030fdcfec838698bb15bf53&amp;dn=In+The+Name+Of+Ben+Hur+2016+Movies+HDRip+XviD+New+%2BSample+%E2%98%BBrDX%E2%98%BB&amp;tr=udp%3A%2F%2Ftracker.leechers-paradise.org%3A6969&amp;tr=udp%3A%2F%2Fzer0day.ch%3A1337&amp;tr=udp%3A%2F%2Fopen.demonii.com%3A1337&amp;tr=udp%3A%2F%2Ftracker.coppersurfer.tk%3A6969&amp;tr=udp%3A%2F%2Fexodus.desync.com%3A6969","seeders":11,"leechers":4,"uploader":"basicssom","files":2,"time":1470810780,"description":"----------------------------------------------------------------\r\nIn The Name Of Ben Hur 2016 English Movies HDRip XviD AAC New Source with Sample ☻rDX☻\r\n\r\nSCREEN SHOTS &amp; POSTER:\r\n  \nhttp://postimage.co.nr/2016/8/fast/index.htm  \nhttp://postimage.co.nr/2016/8/fast/1.html  \nhttp://postimage.co.nr/2016/8/fast/2.html  \nhttp://postimage.co.nr/2016/8/fast/3.html  \nhttp://postimage.co.nr/2016/8/fast/4.html  \nhttp://postimage.co.nr/2016/8/fast/5.html  \nhttp://postimage.co.nr/2016/8/fast/6.html  \nhttp://postimage.co.nr/2016/8/fast/7.html  \nhttp://postimage.co.nr/2016/8/fast/8.html  \nhttp://postimage.co.nr/2016/8/fast/9.html  \nhttp://postimage.co.nr/2016/8/fast/10.html\r\n\r\nFormat                                   : Matroska\r\nFormat version                           : Version 4 / Version 2\r\nFile size                                : 699 MiB\r\nDuration                                 : 1 h 28 min\r\nOverall bit rate mode                    : Constant\r\nOverall bit rate                         : 1 100 kb/s\r\nMovie name                               : In The Name Of Ben Hur 2016 English Movies HDRip XviD AAC New Source ☻rDX☻\r\n\r\nVideo\r\nID                                       : 2\r\nFormat                                   : AVC\r\nFormat/Info                              : Advanced Video Codec\r\nFormat profile                           :   \r\nFormat settings, CABAC                   : Yes\r\nFormat settings, ReFrames                : 2 frames\r\nFormat settings, GOP                     : M=1, N=12\r\nCodec ID                                 : V_MPEG4/ISO/AVC\r\nDuration                                 : 1 h 28 min\r\nBit rate mode                            : Constant\r\nBit rate                                 : 717 kb/s\r\nWidth                                    : 720 pixels\r\nHeight                                   : 400 pixels\r\nDisplay aspect ratio                     : 16:9\r\nFrame rate mode                          : Constant\r\nFrame rate                               : 23.976 FPS\r\nColor space                              : YUV\r\nChroma subsampling                       : 4:2:0\r\nBit depth                                : 8 bits\r\nScan type                                : Progressive\r\nBits/(Pixel*Frame)                       : 0.104\r\nStream size                              : 441 MiB (63%)\r\nTitle                                    : ☻rDX☻\r\nDefault                                  : Yes\r\nForced                                   : No\r\n\r\nAudio\r\nID                                       : 1\r\nFormat                                   : AC-3\r\nFormat/Info                              : Audio Coding 3\r\nMode extension                           : CM (complete main)\r\nFormat settings, Endianness              : Big\r\nCodec ID                                 : A_AC3\r\nDuration                                 : 1 h 28 min\r\nBit rate mode                            : Constant\r\nBit rate                                 : 384 kb/s\r\nChannel(s)                               : 6 channels\r\nChannel positions                        : Front: L C R, Side: L R, LFE\r\nSampling rate                            : 48.0 kHz\r\nFrame rate                               : 31.250 FPS (1536 spf)\r\nCompression mode                         : Lossy\r\nStream size                              : 244 MiB (35%)\r\nTitle                                    : ☻rDX☻\r\nDefault                                  : Yes\r\nForced                                   : No\r\n\r\nIMDB \nhttp://www.imdb.com/title/tt5582876/","torrent":{"xt":"urn:btih:7638a886268b4a8e0030fdcfec838698bb15bf53","amp;dn":"In+The+Name+Of+Ben+Hur+2016+Movies+HDRip+XviD+New+%2BSample+%E2%98%BBrDX%E2%98%BB","amp;tr":["udp%3A%2F%2Ftracker.leechers-paradise.org%3A6969","udp%3A%2F%2Fzer0day.ch%3A1337","udp%3A%2F%2Fopen.demonii.com%3A1337","udp%3A%2F%2Ftracker.coppersurfer.tk%3A6969","udp%3A%2F%2Fexodus.desync.com%3A6969"],"infoHash":"7638a886268b4a8e0030fdcfec838698bb15bf53","infoHashBuffer":{"type":"Buffer","data":[118,56,168,134,38,139,74,142,0,48,253,207,236,131,134,152,187,21,191,83]},"announce":[],"urlList":[]}}